<?xml version="1.0" encoding="UTF-8" standalone="no"?>
<!-- Created with Inkscape (http://www.inkscape.org/) -->

<svg
   width="126.62416mm"
   height="160.34868mm"
   viewBox="0 0 126.62416 160.34868"
   version="1.1"
   id="svg1"
   xml:space="preserve"
   inkscape:version="1.3 (0e150ed6c4, 2023-07-21)"
   sodipodi:docname="ajahn.svg"
   xmlns:inkscape="http://www.inkscape.org/namespaces/inkscape"
   xmlns:sodipodi="http://sodipodi.sourceforge.net/DTD/sodipodi-0.dtd"
   xmlns="http://www.w3.org/2000/svg"
   xmlns:svg="http://www.w3.org/2000/svg"><sodipodi:namedview
     id="namedview1"
     pagecolor="#ffffff"
     bordercolor="#999999"
     borderopacity="1"
     inkscape:showpageshadow="0"
     inkscape:pageopacity="0"
     inkscape:pagecheckerboard="0"
     inkscape:deskcolor="#d1d1d1"
     inkscape:document-units="mm"
     inkscape:zoom="0.78363065"
     inkscape:cx="216.30088"
     inkscape:cy="518.10122"
     inkscape:window-width="2560"
     inkscape:window-height="1440"
     inkscape:window-x="0"
     inkscape:window-y="0"
     inkscape:window-maximized="1"
     inkscape:current-layer="layer1" /><defs
     id="defs1" /><g
     inkscape:label="Layer 1"
     inkscape:groupmode="layer"
     id="layer1"
     transform="translate(-30.618427,-52.691093)"><path
       style="fill:#e27400;fill-opacity:1;stroke:none;stroke-width:1px;stroke-linecap:butt;stroke-linejoin:miter;stroke-opacity:1"
       d="m 288.02299,141.11139 c -2.15142,5.9696 -3.38477,12.70266 -7.39823,17.86268 -6.44751,8.28942 -17.9256,11.76085 -26.10008,17.75541 -10.32211,7.56947 -21.33861,13.99136 -31.62813,21.62498 -6.27753,4.65719 -18.17888,7.25658 -21.43378,14.65316 -12.52836,6.15654 -25.20208,14.76805 -35.06282,24.76948 -2.92068,2.96236 -5.13431,6.49837 -8.17748,9.37275 -5.79951,5.47784 -13.71299,9.04176 -15.55737,17.51615 -2.16739,9.95858 -2.75575,43.41922 -5.69306,47.44954 -2.36386,5.03261 -3.08043,10.63318 -5.15559,15.83095 -10.80563,27.06541 -14.83237,54.8505 -21.12209,83.29864 -2.23617,10.11413 -3.08268,22.17842 -7.90244,30.59344 -8.903121,6.49543 -20.931464,4.04695 -31.17136,7.9048 -19.701865,7.4226 -54.031342,34.18359 -63.7788041,52.33392 -4.3138335,8.03261 -2.8411243,16.70294 -4.5287809,25.26352 -3.67292779,18.6308 -4.21868742,25.25351 8.617517,39.11638 4.729236,6.05493 -5.2791538,12.02824 -4.2513207,17.27006 0.1159512,0.59134 12.1136027,3.96032 13.5863457,3.96032 9.121022,0 19.774091,-4.3151 27.924423,-4.3151 5.914438,0 12.485378,-0.66172 18.289311,0.87457 2.919084,0.77268 6.135285,3.05028 9.305089,3.11876 11.619173,5.75111 25.93923,12.30692 39.2313,11.84681 8.87689,-0.30728 18.29779,-2.82517 27.10851,-1.08909 3.33043,0.65623 4.79438,2.99273 7.6916,3.86956 11.94541,5.59175 25.54965,-1.65554 37.92206,-0.65332 6.89319,0.55838 15.50853,4.66406 22.47889,3.39927 7.34514,-1.33278 12.79122,-6.36875 20.27867,-7.21107 10.32236,-1.16124 17.40178,3.8904 25.98091,2.93723 8.27103,-0.91893 11.30189,-8.61079 15.60321,-13.57233 3.22527,-2.73792 5.86881,-5.46579 10.32047,-4.64096 2.73176,0.50616 4.34772,4.71167 5.75722,6.76554 3.83366,5.58625 7.9677,9.29874 13.50384,13.11855 8.57739,5.91818 19.67444,1.11843 28.17195,3.27551 2.70769,-2.34345 6.75031,-1.86021 9.92791,-3.1114 4.32422,-1.70265 6.92434,-8.03791 10.79024,-9.12522 6.65139,-1.87077 13.89953,5.76097 19.79278,6.89755 4.0853,0.78789 9.3555,1.15308 12.66958,1.3201 21.37703,-0.0515 39.264,-13.81882 57.26173,-23.32612 21.86644,-11.84 39.51731,-48.70817 36.89286,-72.45151 0.38592,-13.0677 -9.55809,-27.46049 -22.05574,-31.90038 -1.9741,-0.70132 -8.63494,-4.61913 -8.91087,-3.16826 3.16389,-20.29713 3.11169,-41.77449 1.32071,-62.26926 -0.2679,-3.06574 -2.07365,-5.72886 -2.41107,-8.61369 -0.82814,-7.08016 0.493,-15.96557 -1.696,-22.53255 0.56098,-2.78614 0.0188,-5.84465 -0.57996,-8.61592 -2.66331,-12.32694 -4.02752,-25.18043 -3.0803,-37.81276 0.36977,-4.93135 2.03409,-10.10949 1.85184,-15.05746 -0.17864,-4.84994 -2.58777,-9.74663 -3.68536,-14.43865 -1.05321,-4.50226 -0.75875,-13.40965 -4.40044,-16.31155 0.18804,-1.71385 -0.23274,-3.90986 -0.78378,-5.58839 -2.31089,-7.03919 -5.81723,-13.91162 -6.79317,-21.37745 -1.35642,-10.37642 -1.94245,-20.58153 -4.02457,-30.83271 -0.38019,-1.87187 -0.0466,-4.61327 -0.57755,-5.94872 0.50172,-2.62194 -2.53843,-2.99809 -3.29041,-4.76359 -1.1204,-2.63047 -1.90068,-5.87477 -3.447,-8.29191 -7.07752,-11.0633 -22.0559,-17.4236 -33.58082,-24.07542 -6.26658,-3.61687 -12.42132,-8.24307 -18.2068,-12.64001 -3.91853,-2.97807 -1.89734,-9.15795 -5.40887,-12.31824 -2.18661,-1.96788 -5.36194,-2.09578 -7.79244,-3.27551 -16.06846,-5.21002 -33.42532,-10.64303 -50.48499,-13.1105 -7.45599,-1.07842 -12.88487,-1.33968 -12.10749,-1.56058 z"
       id="path112"
       transform="matrix(0.26458333,0,0,0.26458333,30.618427,52.691093)" /><path
       style="fill:#c96600;fill-opacity:1;stroke:none;stroke-width:1px;stroke-linecap:butt;stroke-linejoin:miter;stroke-opacity:1"
       d="m 224.5677,528.90021 c 23.04858,-9.85903 57.45304,3.40111 79.26282,-5.79196 4.83449,-2.03779 8.40739,-6.22271 12.32122,-9.53777 2.26532,-1.91875 18.90983,-20.70415 16.9417,-22.47478 -4.56177,-4.104 -31.17908,29.59079 -38.33879,32.04554 -3.42935,1.17578 -42.01958,-0.90851 -47.19468,-2.26067 -4.4667,-1.16707 -13.45269,-1.39938 -15.65822,-6.45201 -0.48706,-1.1158 0.75214,-3.01949 -0.56839,-3.74581 -0.83818,-0.46102 -5.24975,0.89022 -4.43709,1.91416 1.26978,1.59991 3.85217,1.77027 5.26218,3.25075 8.30977,8.72508 -2.73805,8.49534 -7.59075,13.05255 z"
       id="path121"
       transform="matrix(0.26458333,0,0,0.26458333,30.618427,52.691093)" /><path
       style="fill:#c96600;fill-opacity:1;stroke:none;stroke-width:1px;stroke-linecap:butt;stroke-linejoin:miter;stroke-opacity:1"
       d="m 100.5302,444.51956 c 2.55539,10.91223 12.4644,19.34211 20.46201,26.66612 5.75583,5.27105 9.14254,12.48014 15.10817,17.63991 6.89379,5.96256 16.78908,8.69678 24.58743,13.43208 11.38477,6.91304 20.6441,14.7584 33.16829,19.45504 1.96125,0.73548 18.01724,8.04126 20.297,5.98999 0.45716,-0.41135 -6.69591,-2.51032 -7.27906,-2.67321 -4.87723,-1.36234 -12.2004,-6.52125 -16.61163,-9.22425 -4.89166,-2.99738 -11.68241,-4.22932 -16.09827,-7.5081 -8.06608,-5.98906 -14.96033,-12.42021 -23.61567,-17.7059 -9.37078,-5.72259 -21.9971,-16.84011 -29.09787,-25.21401 -5.62967,-6.63904 -10.04168,-19.87399 -17.95011,-24.02592 -0.94285,-0.495 -1.40013,1.73567 -1.55849,2.78872"
       id="path120"
       transform="matrix(0.26458333,0,0,0.26458333,30.618427,52.691093)" /><path
       style="fill:#c96600;fill-opacity:1;stroke:none;stroke-width:1px;stroke-linecap:butt;stroke-linejoin:miter;stroke-opacity:1"
       d="m 370.38268,243.84287 c -0.98219,4.13544 -1.9245,8.30242 -3.18938,12.36829 -8.04066,25.84617 -8.72541,58.49905 -6.40466,85.64453 1.35355,15.83226 12.81915,33.5733 6.11944,49.1231 -0.87382,2.02809 -10.03425,20.11567 -11.38319,20.41934 -4.22278,0.95064 4.12761,-7.85728 7.44188,-10.6414 4.47635,-3.76032 17.61976,-22.04185 16.43947,-27.88698 -1.2027,-5.9561 -6.63587,-9.39621 -8.03824,-14.86528 -3.49212,-13.61883 3.60203,-28.34969 2.51519,-41.79546 -0.51209,-6.33533 -3.76977,-12.38238 -5.03038,-18.62245 -1.69583,-8.39448 -0.79512,-19.40446 -1.50393,-28.12033 -0.60674,-7.46079 5.84181,-20.1759 3.0338,-25.62336 z"
       id="path119"
       transform="matrix(0.26458333,0,0,0.26458333,30.618427,52.691093)" /><path
       style="fill:#c96600;fill-opacity:1;stroke:none;stroke-width:1px;stroke-linecap:butt;stroke-linejoin:miter;stroke-opacity:1"
       d="m 299.42044,600.22503 c -2.47214,-2.49798 -13.34095,-10.89666 -11.51446,-15.28023 12.9232,-31.0157 87.83488,-32.56 115.63975,-35.0818 23.85119,-2.16321 46.25709,-8.68663 69.03184,-12.37599 -5.09263,10.8045 -10.95431,21.57257 -19.28858,30.36244 -7.9699,8.40559 -18.86807,12.96562 -28.73116,18.33296 -19.41727,10.56657 -40.37549,24.54966 -61.78945,9.60377 -3.08269,-2.15157 -12.02137,0.27255 -13.86137,-1.50162 -3.43381,-3.31096 -13.45275,-6.8939 -15.51154,-12.06246 -1.31001,-3.28878 -1.60153,-19.77656 -9.02089,-18.01945 -11.55941,2.7376 -20.35647,26.20711 -24.95414,36.02238 z"
       id="path118"
       transform="matrix(0.26458333,0,0,0.26458333,30.618427,52.691093)" /><path
       style="fill:#c96600;fill-opacity:1;stroke:none;stroke-width:1px;stroke-linecap:butt;stroke-linejoin:miter;stroke-opacity:1"
       d="m 4.9288137,520.51406 c 11.2141283,2.32644 23.8681733,4.64259 33.6180023,11.10812 21.149579,14.02518 2.344106,13.50271 -2.242931,24.93493 -1.549597,3.86204 4.618318,9.96989 3.915403,14.50356 -0.612905,3.95313 -7.323008,5.39589 -6.534317,5.8691 1.304832,0.7829 3.364514,-0.17502 4.797013,-0.17502 16.35035,0 16.841009,-7.96938 28.107923,-7.96938 13.192882,0 18.294379,12.60673 28.159776,17.64231 8.249777,4.21093 21.159427,5.629 24.905577,12.81168 -6.38896,1.29512 -12.51912,-0.99211 -18.64353,-2.25195 -12.581031,-2.58803 -24.120047,-13.19287 -37.196317,-13.88515 -15.680244,-0.83014 -39.990531,10.11127 -54.0247639,1.40017 -5.8736011,-3.64576 3.4049049,-8.57172 2.8911749,-16.66217 -0.358336,-5.64325 -8.2405387,-9.8456 -11.1757493,-14.35188 -2.39439236,-3.67599 1.0776907,-29.63588 3.422739,-32.97432 z"
       id="path117"
       transform="matrix(0.26458333,0,0,0.26458333,30.618427,52.691093)" /><path
       style="fill:#e3bb96;fill-opacity:1;stroke:none;stroke-width:1px;stroke-linecap:butt;stroke-linejoin:miter;stroke-opacity:1"
       d="m 299.28307,600.42893 c 3.50768,-9.76792 16.94058,-44.26129 31.29728,-32.28589 2.54589,2.12361 0.91221,9.32046 2.12624,12.36829 0.79814,2.00371 2.5513,3.80442 3.70797,5.6124 3.01472,4.71224 11.24057,0.011 11.24057,8.96117 0,14.21863 -39.91293,10.93917 -48.37206,5.34403 z"
       id="path116"
       transform="matrix(0.26458333,0,0,0.26458333,30.618427,52.691093)" /><path
       style="fill:#c96600;fill-opacity:1;stroke:none;stroke-width:1px;stroke-linecap:butt;stroke-linejoin:miter;stroke-opacity:1"
       d="m 356.723,461.92439 c -1.06611,2.09516 -10.21671,15.26822 -9.46093,15.76701 1.05552,0.69662 4.70546,-3.37093 5.36303,-3.91081 4.7428,-3.89399 9.99131,-6.39334 15.50236,-8.98497 16.79539,-7.8982 35.65881,-7.74432 53.43779,-4.01807 4.26164,0.89319 8.97897,0.23806 13.11879,1.96365 4.11138,1.71374 10.01262,5.63151 12.56874,7.10382 2.91284,-16.49548 2.25237,-33.2928 1.79323,-50.02356 -0.10383,-3.78346 -1.4225,-7.8985 -1.16428,-11.68294 0.31792,-4.65954 0.11605,-12.24408 -1.54933,-16.62507 -1.9292,-5.07503 -0.70826,-10.92269 -2.04436,-15.97328 -0.54035,-2.04253 -1.80758,-10.01617 -1.25596,-9.16648 -1.15528,0.38392 -2.6692,0.91973 -3.13532,2.17817 -0.48868,1.31939 -0.0862,2.9473 -0.60505,4.3481 -2.81726,7.60614 -7.16583,16.50553 -11.64282,23.29161 -3.2827,4.97583 -4.10977,11.62053 -7.60909,16.34456 -3.0944,4.1774 -5.54335,9.19091 -8.81003,13.15979 -2.17114,2.63785 -4.93061,3.94242 -7.4074,6.1715 -3.27673,2.949 -5.61748,6.597 -8.92922,9.53776 -4.6485,4.12777 -10.62631,6.33437 -15.99741,9.25724 -4.41456,2.40233 -17.68939,11.13757 -22.17274,11.26197 z"
       id="path115"
       transform="matrix(0.26458333,0,0,0.26458333,30.618427,52.691093)" /><path
       style="fill:#f0dac6;fill-opacity:1;stroke:none;stroke-width:1px;stroke-linecap:butt;stroke-linejoin:miter;stroke-opacity:1"
       d="m 334.38673,447.75203 c -1.03838,-1.44029 -4.48043,-2.23244 -5.38044,-0.0233 -2.0842,5.11573 -16.72842,20.41411 -21.74807,22.4675 -12.01396,4.91456 -24.46873,3.68245 -35.29752,8.06816 -11.026,4.46559 -22.61421,10.62063 -31.78026,17.99222 -10.45778,8.41044 -13.69702,11.62631 -5.02041,21.44652 3.28816,5.60395 18.77393,3.25273 24.47067,3.25273 8.61736,0 26.68606,4.39362 33.63226,2.58764 14.79576,-3.84684 21.10683,-20.02124 32.8781,-28.89699 3.16406,-2.38576 7.34902,-3.27517 10.38488,-6.03246 2.55979,-2.3249 17.13581,-20.32968 17.82675,-24.05982 0.81586,-4.40454 -17.57426,-19.38513 -19.96596,-16.8022 z"
       id="path111"
       transform="matrix(0.26458333,0,0,0.26458333,30.618427,52.691093)"
       sodipodi:nodetypes="csssscsssssc" /><path
       style="fill:#ebc8b6;fill-opacity:1;stroke:none;stroke-width:1px;stroke-linecap:butt;stroke-linejoin:miter;stroke-opacity:1"
       d="m 253.10484,519.90844 c -5.61737,-10.84629 -29.34535,0.0164 -9.43343,0.37128 3.1724,0.0565 6.33981,0.34962 9.43343,-0.37128 z"
       id="path136"
       transform="matrix(0.26458333,0,0,0.26458333,30.618427,52.691093)" /><path
       style="fill:#ebc8b6;fill-opacity:1;stroke:none;stroke-width:1px;stroke-linecap:butt;stroke-linejoin:miter;stroke-opacity:1"
       d="m 236.41986,504.42195 c -14.01281,5.04661 6.94495,9.59466 11.20277,1.93066 1.98409,-3.57134 -9.37444,-2.95013 -11.20277,-1.93066 z"
       id="path134"
       transform="matrix(0.26458333,0,0,0.26458333,30.618427,52.691093)" /><path
       style="fill:#e3bb96;fill-opacity:1;stroke:none;stroke-width:1px;stroke-linecap:butt;stroke-linejoin:miter;stroke-opacity:1"
       d="m 264.16817,497.74411 c -8.78692,3.26336 -16.12309,11.34041 -25.78839,12.475 -1.65649,0.19445 -3.28584,-0.90928 -4.8313,-0.41254 -2.56431,0.82422 -2.22533,2.53438 -1.19179,4.53787 0.61434,1.19089 3.85026,3.60533 3.19949,2.43394 -1.20561,-2.17009 4.14194,-4.06112 5.26218,-4.47186 8.97238,-3.28978 18.07238,-1.9939 25.48585,-9.05097 3.53474,-3.3648 3.28024,-8.24997 -2.13604,-5.51144 z"
       id="path126"
       transform="matrix(0.26458333,0,0,0.26458333,30.618427,52.691093)" /><path
       style="fill:#f0dac6;fill-opacity:1;stroke:none;stroke-width:1.00157;stroke-linecap:butt;stroke-linejoin:miter;stroke-dasharray:none;stroke-opacity:1"
       d="m 208.13223,11.042153 c -8.94891,5.932025 -18.17026,15.430131 -20.3549,26.440114 -1.54252,7.773916 0.96372,16.311431 -0.93347,23.873132 -3.8043,15.162917 -14.65128,-2.536255 -10.50159,26.720159 2.5891,18.253792 18.01869,33.223812 17.2952,51.130012 -27.49663,15.01526 -61.05486,22.1991 -83.36444,45.89116 -19.178684,20.36714 -27.664363,62.88966 -26.007599,89.72841 -3.014624,22.80043 -1.756363,46.26138 -4.115632,69.26351 -0.264366,2.57749 1.100417,5.56951 0.88161,8.35443 -0.768204,9.77751 -0.85874,18.94996 -1.063127,28.70375 -0.05182,2.47272 -1.281408,4.75589 -0.738998,7.23429 3.327212,15.2028 7.600983,24.92066 16.659907,37.22153 2.939632,3.99164 5.916669,14.24176 9.373619,16.91889 12.0922,24.62742 74.51411,76.37494 101.90053,81.9405 4.71864,0.5065 10.89999,4.53065 15.73166,4.06467 1.80324,-0.17391 2.73643,-0.85241 4.434,-1.59854 1.70299,-0.74853 4.79803,-1.92751 6.23611,-2.94039 6.83422,-4.8135 -6.44623,-8.38676 -5.76938,-12.04157 0.279,-1.50654 2.65039,-1.23478 2.42444,-5.099 -0.80864,-13.82896 -33.67284,-21.25095 -43.43244,-26.54514 -9.27376,-5.03064 -20.66269,-19.48952 -23.84246,-27.7703 -5.52558,-23.80607 -23.22577,-42.8093 -31.08695,-66.28472 -1.4757,-4.4068 -4.41304,-8.82901 -4.62848,-13.62845 -0.83192,-18.53286 7.92723,-38.26317 9.24398,-53.9654 6.0957,-17.67185 -0.45683,-42.36386 7.64972,-58.71634 1.96208,-3.9579 7.34593,-5.42342 10.79976,-8.22608 5.24689,-4.25766 8.73508,-11.02249 14.13175,-15.16865 22.68117,-14.36401 19.93646,-15.51608 42.27027,-30.87827 6.65993,-4.58099 36.77376,-25.55988 43.92512,-29.52053 10.56164,-5.84936 34.01346,-20.00096 33.12533,-33.9311 -0.44319,-2.28889 -2.97579,-1.42785 -4.19512,-2.42543 -3.08914,-2.52732 -2.55134,-18.24124 -1.36131,-21.03775 1.72598,-4.05594 6.18413,-5.14625 8.69945,-8.51778 6.31325,-8.4623 8.84789,-17.988722 11.40912,-27.886982 2.10567,-8.137681 -3.75661,-13.417049 -9.81444,-12.753335 -0.41572,-4.544666 0.96116,-9.255713 0.51926,-13.829873 C 291.48602,33.540295 280.04679,10.01066 257.78478,4.2110011 254.38622,3.3256162 251.80463,1.1163742 247.63324,1.3873009 238.9679,1.2106867 211.74719,-0.04711902 208.13223,11.042153 Z"
       id="path110"
       transform="matrix(0.26458333,0,0,0.26458333,30.608136,52.669483)"
       sodipodi:nodetypes="cssscscsssssccsssssscsscsscsscsssscsscc" /><path
       style="fill:#ebc8b6;fill-opacity:1;stroke:none;stroke-width:1px;stroke-linecap:butt;stroke-linejoin:miter;stroke-opacity:1"
       d="m 225.84048,526.2697 c -1.11912,-0.5023 -2.42417,-0.49833 -3.55701,-0.94883 -0.76084,-0.30256 -12.62397,-1.44027 -10.08434,0.66005 1.81191,1.49848 16.4676,5.76295 13.64135,0.28878 z"
       id="path135"
       transform="matrix(0.26458333,0,0,0.26458333,30.618427,52.691093)" /><path
       style="fill:#ebc8b6;fill-opacity:1;stroke:none;stroke-width:1px;stroke-linecap:butt;stroke-linejoin:miter;stroke-opacity:1"
       d="m 230.32342,507.38394 c -1.31087,-1.33872 -3.15451,-2.2091 -4.91381,-2.87123 -3.48334,-1.31099 -13.49062,2.51483 -9.30509,5.21441 2.29889,1.48275 6.03664,3.06718 8.76419,2.96199 2.11096,-0.0814 7.02375,-3.40693 5.45471,-5.30517 z"
       id="path133"
       transform="matrix(0.26458333,0,0,0.26458333,30.618427,52.691093)" /><path
       style="fill:#e3bb96;fill-opacity:1;stroke:none;stroke-width:1px;stroke-linecap:butt;stroke-linejoin:miter;stroke-opacity:1"
       d="m 274.1712,135.9961 c -14.69257,10.89772 -35.87429,28.60444 -55.13974,27.19856 -2.71004,-0.19776 -5.58923,-1.97558 -8.24569,-2.69536 -3.92201,-1.06269 -14.48934,-14.54359 -10.56639,-18.07403 0.18003,-0.16201 5.82414,4.13738 6.48245,4.74896 4.13606,3.8425 12.2012,7.55503 17.94343,8.00437 19.60557,1.53415 33.82342,-11.13051 49.52594,-19.1825 z"
       id="path124"
       transform="matrix(0.26458333,0,0,0.26458333,30.618427,52.691093)" /><path
       style="fill:#e3bb96;fill-opacity:1;stroke:none;stroke-width:1px;stroke-linecap:butt;stroke-linejoin:miter;stroke-opacity:1"
       d="m 292.08913,78.700484 c -0.60298,3.095414 -3.27354,4.890218 -3.77703,7.722622 -6.14919,34.592364 20.77918,-11.342326 3.77703,-7.722622 z"
       id="path122"
       transform="matrix(0.26458333,0,0,0.26458333,30.618427,52.691093)" /><path
       style="fill:none;stroke:#000000;stroke-width:1px;stroke-linecap:butt;stroke-linejoin:miter;stroke-opacity:1"
       d="m 309.64628,337.87791 c -29.22074,16.86264 -63.35779,21.16965 -85.07414,49.50903 -34.54928,45.08608 -24.15133,142.38625 -29.58592,196.67906 -0.35433,9.11948 3.5106,17.66432 6.88706,25.93645 2.15436,5.27805 19.43509,26.08832 17.68412,30.29063 -2.28262,5.47831 -27.23539,6.51168 -33.50131,9.80129 -20.89146,10.96803 -52.66408,30.34749 -62.33526,51.90011 -3.57433,7.96553 -2.05041,16.77969 -3.81169,24.99327 -3.69248,17.21956 -7.07091,25.24588 6.87141,36.91817 6.99056,5.85239 -4.21086,17.81924 -3.63018,18.22571 16.71801,11.70254 37.09681,-2.52904 54.86748,0.3267 19.58338,3.14704 27.71605,14.63839 57.14931,16.00876 7.27277,0.33861 23.71651,-3.98695 28.60058,1.21353 13.88424,8.09235 31.22006,-1.34521 45.71576,1.55514 6.43892,1.28832 11.46352,3.71707 18.46202,2.77704 7.25604,-0.97461 13.9641,-6.66539 20.95129,-7.32763 8.91718,-0.84516 18.03232,4.53951 26.70772,1.93691 8.89837,-2.66948 12.64925,-19.85341 24.39995,-17.50229 4.65213,0.93082 8.1772,17.11605 20.48455,20.90941 12.92315,3.98316 31.17736,4.42962 42.21375,-4.45724 1.2952,-1.04294 2.03738,-5.64337 3.63014,-5.90412 5.10461,-0.83566 17.22838,6.251 21.88476,7.74768 16.13152,5.18509 41.76074,-3.92952 53.7266,-13.55845 43.88235,-14.89308 80.59093,-101.95763 21.74682,-116.60567 6.94502,-41.00048 -3.08913,-80.96407 -6.31171,-121.57442 -1.21633,-15.32802 2.42439,-30.55889 -0.90755,-45.92601 -3.05507,-14.09023 -8.88375,-27.61976 -11.87584,-41.42207 -3.5814,-16.52077 -2.67083,-37.15259 -11.14981,-50.35993 -10.85826,-17.70013 -40.85168,-25.76356 -54.42529,-40.85394 -2.55187,-2.83703 -1.34238,-9.532 -4.9526,-11.4815 -21.71403,-11.72543 -55.46457,-12.52779 -73.6666,-18.22573 -1.98992,-10.24009 -5.34327,-19.80022 2.43278,-24.20072 5.06524,-2.86644 15.90687,-22.46905 16.4182,-36.14717 0.46647,-12.47788 -11.17887,-10.01409 -11.07203,-9.91796 1.28128,1.15286 3.31735,-16.73074 -2.93007,-35.00458 -6.04618,-17.68521 -29.60154,-36.48492 -48.48875,-33.27769 -21.74115,-6.44005 -45.43195,15.63334 -52.19671,34.30449 -2.84977,7.86557 2.21426,28.12232 -5.16003,30.80403 -3.19143,1.16058 -11.16618,1.78223 -8.21976,15.14531 7.43452,33.71824 6.80325,22.65503 11.47004,31.80859 7.70522,15.11322 3.38589,8.63279 6.99091,24.95581 z"
       id="path1"
       transform="matrix(0.26458333,0,0,0.26458333,-0.11662971,-0.01852381)"
       sodipodi:nodetypes="cscssssssssscsssssssssccssscsscsssscssssc" /><path
       style="fill:#e3bb96;fill-opacity:1;stroke:none;stroke-width:1px;stroke-linecap:butt;stroke-linejoin:miter;stroke-opacity:1"
       d="m 198.36365,498.35277 c -1.09763,0.15257 -2.49868,-1.07046 -3.56618,-0.62705 -1.44457,0.60003 3.64194,6.61367 4.18958,7.21107 6.71139,7.3213 17.73473,9.27737 24.75244,16.33631 0.83037,0.83524 2.06366,2.14727 2.33773,3.34976 0.076,0.33348 0.51438,1.96283 0.80675,1.97191 1.15366,0.0358 2.2518,-1.48143 3.23615,-2.00491 3.3137,-1.76223 9.69102,-0.0452 2.56692,-7.73912 -4.11408,-4.44315 -11.38466,-3.49875 -16.41912,-6.287 -6.525,-3.61375 -10.73462,-9.32791 -17.90427,-12.21097 z"
       id="path125"
       transform="matrix(0.26458333,0,0,0.26458333,30.618427,52.691093)" /><path
       style="fill:none;stroke:#000000;stroke-width:1px;stroke-linecap:butt;stroke-linejoin:miter;stroke-opacity:1"
       d="m 330.35207,270.03979 c -6.50355,-2.64886 -12.58763,1.85072 -15.98824,7.35958 -9.2915,15.05187 11.99722,27.80758 24.01904,17.67292 10.5441,-8.88892 -0.19177,-29.81422 -8.0308,-25.0325 z"
       id="path5"
       transform="scale(0.26458333)" /><path
       style="fill:none;stroke:#000000;stroke-width:1px;stroke-linecap:butt;stroke-linejoin:miter;stroke-opacity:1"
       d="m 368.98423,272.84501 c -4.20102,-3.8943 -12.16592,-3.10603 -16.31828,0.74256 -11.7871,10.92481 6.89601,31.16954 20.53536,23.46487 13.61234,-7.68941 5.87954,-27.70963 -4.21708,-24.20743 z"
       id="path6"
       transform="scale(0.26458333)" /><path
       style="fill:none;stroke:#000000;stroke-width:1px;stroke-linecap:butt;stroke-linejoin:miter;stroke-opacity:1"
       d="m 342.83831,282.79531 c 1.74483,-2.41011 3.50096,-1.60011 5.20717,-0.37953"
       id="path7"
       transform="scale(0.26458333)" /><path
       style="fill:none;stroke:#000000;stroke-width:1px;stroke-linecap:butt;stroke-linejoin:miter;stroke-opacity:1"
       d="m 380.51703,280.15509 c 7.47604,-0.62651 33.39047,-18.05184 34.65342,-9.86778"
       id="path8"
       transform="scale(0.26458333)" /><path
       style="fill:none;stroke:#000000;stroke-width:1px;stroke-linecap:butt;stroke-linejoin:miter;stroke-opacity:1"
       d="m 313.57542,280.74914 c -2.33715,-3.33701 -20.04383,-24.75812 -18.57351,-13.8776"
       id="path9"
       transform="scale(0.26458333)" /><path
       style="fill:none;stroke:#000000;stroke-width:1px;stroke-linecap:butt;stroke-linejoin:miter;stroke-opacity:1"
       d="m 343.73673,287.6962 c 0.81596,12.76627 -15.09041,27.5983 3.53868,28.64628 1.15328,0.0649 5.58315,0.28048 6.4173,-1.00658 3.33298,-5.14267 -4.58247,-19.90389 -4.52878,-25.36252"
       id="path10"
       transform="scale(0.26458333)" /><path
       style="fill:none;stroke:#000000;stroke-width:1px;stroke-linecap:butt;stroke-linejoin:miter;stroke-opacity:1"
       d="m 324.68652,315.23689 c 11.13247,20.20585 37.86634,13.15314 48.16642,-3.06924"
       id="path11"
       transform="scale(0.26458333)" /><path
       style="fill:none;stroke:#000000;stroke-width:1px;stroke-linecap:butt;stroke-linejoin:miter;stroke-opacity:1"
       d="m 408.4048,277.84492 c 9.75774,-6.23231 2.46795,15.36547 -0.67841,19.95008"
       id="path12"
       transform="scale(0.26458333)" /><path
       style="fill:none;stroke:#000000;stroke-width:1px;stroke-linecap:butt;stroke-linejoin:miter;stroke-opacity:1"
       d="m 404.0777,285.41901 c 0.93485,3.17018 0.2201,6.17973 -0.64173,8.97672"
       id="path13"
       transform="scale(0.26458333)" /><path
       style="fill:none;stroke:#000000;stroke-width:1px;stroke-linecap:butt;stroke-linejoin:miter;stroke-opacity:1"
       d="m 299.80572,275.1552 c -4.44074,-8.60085 -9.90694,27.14283 2.4569,25.52753"
       id="path14"
       transform="scale(0.26458333)" /><path
       style="fill:none;stroke:#000000;stroke-width:1px;stroke-linecap:butt;stroke-linejoin:miter;stroke-opacity:1"
       d="m 300.70414,282.51478 c 0.65212,3.29003 -0.48314,5.79916 2.45691,7.4256"
       id="path15"
       transform="scale(0.26458333)" /><path
       style="fill:none;stroke:#000000;stroke-width:1px;stroke-linecap:butt;stroke-linejoin:miter;stroke-opacity:1"
       d="m 318.30272,285.76747 c 6.01662,-3.87595 12.15354,-1.10954 17.41838,0.69305"
       id="path16"
       transform="scale(0.26458333)" /><path
       style="fill:none;stroke:#000000;stroke-width:1px;stroke-linecap:butt;stroke-linejoin:miter;stroke-opacity:1"
       d="m 357.04487,285.76747 c 5.87641,-3.05581 9.32782,-1.33804 14.92482,0.87457"
       id="path17"
       transform="scale(0.26458333)" /><path
       style="fill:none;stroke:#000000;stroke-width:1px;stroke-linecap:butt;stroke-linejoin:miter;stroke-opacity:1"
       d="m 403.59781,340.43633 c -1.25019,6.20446 -3.5412,12.58714 -7.7741,17.45839 -8.0013,9.20794 -21.07022,13.89309 -30.69303,21.07219 -30.75949,22.94812 -65.04889,38.46833 -90.83232,67.47389 -4.18635,4.70951 -12.18399,8.35847 -14.92481,13.39907 -0.37382,5.0524 -1.90145,10.0146 -2.18598,15.07154 -1.12821,20.05192 -3.64761,39.49839 -7.64576,59.12422 -2.16932,10.64861 -7.34797,18.87481 -6.61898,30.24692 1.46896,22.91544 22.37719,56.24815 32.59989,74.0249 5.16857,24.5226 19.48909,40.82424 43.93418,47.66846 4.60303,1.28877 12.00205,4.51425 15.52986,7.88763 2.78291,2.66109 18.91838,12.01036 8.21415,17.29337 -10.40964,5.13762 -23.97076,-15.39769 -32.45321,-13.9436 2.31681,13.21195 35.14751,18.76076 31.33476,29.25684 -2.79912,7.7057 -43.28923,-14.68222 -50.18329,-17.72241 -25.73283,-19.27259 -57.13913,-41.13227 -72.66218,-68.19996"
       id="path18"
       transform="scale(0.26458333)" /><path
       style="fill:none;stroke:#000000;stroke-width:1px;stroke-linecap:butt;stroke-linejoin:miter;stroke-opacity:1"
       d="m 310.93714,698.36544 c 6.58544,7.8496 30.79035,14.33342 35.13014,22.14476 1.81393,3.26496 -2.08957,5.18835 -4.21707,6.221"
       id="path19"
       transform="scale(0.26458333)" /><path
       style="fill:none;stroke:#000000;stroke-width:1px;stroke-linecap:butt;stroke-linejoin:miter;stroke-opacity:1"
       d="m 340.89678,711.67374 c 6.16304,1.56634 16.98796,12.12879 4.89548,12.58227"
       id="path20"
       transform="scale(0.26458333)"
       sodipodi:nodetypes="cc" /><path
       style="fill:none;stroke:#000000;stroke-width:1px;stroke-linecap:butt;stroke-linejoin:miter;stroke-opacity:1"
       d="m 486.8992,442.85733 c -3.88569,14.82766 -2.84452,40.1357 -0.58672,58.08464 0.58116,4.62008 3.03814,9.37386 3.41035,13.72909 1.25044,14.63157 -7.87698,30.21825 -1.4298,44.93481 1.69108,5.103 6.49913,10.13338 5.0605,15.31322 -4.0184,14.46837 -57.19449,86.9816 -69.38021,94.17302 -12.81547,7.56307 -26.67328,3.58182 -39.29222,9.55425 -3.72634,1.93444 -7.58526,3.61949 -11.27612,5.65996 -4.91291,2.71608 -31.75486,16.7237 -25.7242,24.12492 6.87515,8.43765 34.40753,-18.12969 37.29369,-11.56742 1.31675,2.99391 -5.29564,8.52657 -7.59076,9.65327 -7.32854,3.59765 -16.71507,0.89024 -23.83569,5.62694 -6.84422,4.55283 1.20531,7.5068 5.86725,7.31009 3.88164,-0.16378 7.7111,-0.20181 11.56947,0.46204 4.03708,0.69456 7.036,1.05481 11.1111,0.75906 7.5689,-0.54932 14.56992,1.45021 22.03886,1.88115 3.14163,0.18126 7.41029,0.18415 10.21268,-1.65014 7.92461,-5.187 16.32444,-15.98718 22.46053,-23.34936 4.08797,-4.90481 11.91329,-5.99886 16.29997,-10.85786 3.2389,-3.58765 21.83472,-26.51036 18.17011,-25.11501 34.31152,-17.31274 52.75976,-24.39052 71.64861,-65.67619 4.61055,-10.07735 10.9765,-19.85435 13.82471,-30.18092"
       id="path21"
       transform="scale(0.26458333)" /><path
       style="fill:none;stroke:#000000;stroke-width:1px;stroke-linecap:butt;stroke-linejoin:miter;stroke-opacity:1"
       d="m 375.69688,706.83061 c -2.43318,-3.31175 -7.83119,-2.39655 -10.41436,-1.2211"
       id="path22"
       transform="scale(0.26458333)" /><path
       style="fill:none;stroke:#000000;stroke-width:1px;stroke-linecap:butt;stroke-linejoin:miter;stroke-opacity:1"
       d="m 349.29427,709.43782 c -4.45933,0.45942 -2.28578,5.47139 0.93509,6.10549"
       id="path23"
       transform="scale(0.26458333)" /><path
       style="fill:none;stroke:#000000;stroke-width:1px;stroke-linecap:butt;stroke-linejoin:miter;stroke-opacity:1"
       d="m 562.78368,669.43972 c -16.03834,-14.29204 -41.92286,-11.4606 -61.95446,-11.08887 -4.55404,0.0845 -35.63564,13.49971 -37.20201,18.33295"
       id="path24"
       transform="scale(0.26458333)" /><path
       style="fill:none;stroke:#000000;stroke-width:1px;stroke-linecap:butt;stroke-linejoin:miter;stroke-opacity:1"
       d="m 418.26819,791.8198 c 6.84189,-10.78632 14.9142,-37.95162 27.99283,-23.97371 3.53722,3.78044 -0.002,11.27589 4.30876,15.70925 4.19302,4.31266 12.03578,2.31445 13.75134,9.45525"
       id="path25"
       transform="scale(0.26458333)"
       sodipodi:nodetypes="cscc" /><path
       style="fill:none;stroke:#000000;stroke-width:1px;stroke-linecap:butt;stroke-linejoin:miter;stroke-opacity:1"
       d="m 433.25284,771.87251 c 2.99442,2.38049 8.46363,3.00797 12.01848,1.61021"
       id="path32"
       transform="scale(0.26458333)" /><path
       style="fill:none;stroke:#000000;stroke-width:1px;stroke-linecap:butt;stroke-linejoin:miter;stroke-opacity:1"
       d="m 430.56911,779.99358 c 4.23827,4.72844 10.00936,2.78862 15.29859,1.9019"
       id="path33"
       transform="scale(0.26458333)" /><path
       style="fill:none;stroke:#000000;stroke-width:1px;stroke-linecap:butt;stroke-linejoin:miter;stroke-opacity:1"
       d="m 427.5094,789.04809 c 4.07925,4.36935 9.28337,3.79973 14.68923,2.90538"
       id="path34"
       transform="scale(0.26458333)" /><path
       style="fill:none;stroke:#000000;stroke-width:1px;stroke-linecap:butt;stroke-linejoin:miter;stroke-opacity:1"
       d="m 315.48721,340.48896 c 18.58369,16.60545 30.58222,18.5957 53.36354,7.09426 8.12719,-4.10311 19.02913,-8.67387 24.37403,-16.19545"
       id="path35"
       transform="scale(0.26458333)" /><path
       style="fill:none;stroke:#000000;stroke-width:1px;stroke-linecap:butt;stroke-linejoin:miter;stroke-opacity:1"
       d="m 400.01004,275.70338 c -0.93112,10.25054 -2.81645,21.28677 -1.17346,31.55053"
       id="path38"
       transform="scale(0.26458333)" /><path
       style="fill:none;stroke:#000000;stroke-width:1px;stroke-linecap:butt;stroke-linejoin:miter;stroke-opacity:1"
       d="m 305.11711,273.66624 c 4.71184,6.76172 4.46176,20.06505 1.05016,27.46693"
       id="path39"
       transform="scale(0.26458333)" /><path
       style="fill:none;stroke:#000000;stroke-width:1px;stroke-linecap:butt;stroke-linejoin:miter;stroke-opacity:1"
       d="m 410.13696,375.5457 c -17.20889,5.80487 -29.62079,23.56139 -42.39087,35.72536 -12.95035,12.33569 -27.17344,21.02517 -35.91854,37.49098"
       id="path40"
       transform="scale(0.26458333)" /><path
       style="fill:none;stroke:#000000;stroke-width:1px;stroke-linecap:butt;stroke-linejoin:miter;stroke-opacity:1"
       d="m 330.72745,422.40945 c -18.57852,16.6211 -39.72395,33.97136 -53.22694,55.42792 -7.01439,11.14602 -11.09754,23.65897 -17.43672,34.98278"
       id="path41"
       transform="scale(0.26458333)" /><path
       style="fill:none;stroke:#000000;stroke-width:1px;stroke-linecap:butt;stroke-linejoin:miter;stroke-opacity:1"
       d="m 341.41684,451.8973 c -28.84002,15.65932 -52.34159,47.52398 -70.81034,74.17341 -5.40979,7.80603 -16.73991,17.72729 -17.25337,27.5242"
       id="path42"
       transform="scale(0.26458333)" /><path
       style="fill:none;stroke:#000000;stroke-width:1px;stroke-linecap:butt;stroke-linejoin:miter;stroke-opacity:1"
       d="M 255.22331,571.18533 C 281.213,533.33364 311.00848,497.9325 343.03032,465.51088"
       id="path43"
       transform="scale(0.26458333)" /><path
       style="fill:none;stroke:#000000;stroke-width:1px;stroke-linecap:butt;stroke-linejoin:miter;stroke-opacity:1"
       d="m 296.97243,522.07739 c -11.67533,17.62174 -17.85977,42.14482 -28.7495,60.59284"
       id="path44"
       transform="scale(0.26458333)" /><path
       style="fill:none;stroke:#000000;stroke-width:1px;stroke-linecap:butt;stroke-linejoin:miter;stroke-opacity:1"
       d="m 314.30308,532.1749 c 22.64384,-15.74932 36.46387,-49.01234 44.79275,-68.76099"
       id="path45"
       transform="scale(0.26458333)" /><path
       style="fill:none;stroke:#000000;stroke-width:1px;stroke-linecap:butt;stroke-linejoin:miter;stroke-opacity:1"
       d="m 338.65215,507.1919 c -14.21546,12.07877 -13.44395,46.16829 -8.78254,62.32547"
       id="path46"
       transform="scale(0.26458333)" /><path
       style="fill:none;stroke:#000000;stroke-width:1px;stroke-linecap:butt;stroke-linejoin:miter;stroke-opacity:1"
       d="m 317.77369,551.26437 c -19.75485,-2.99013 -31.65334,13.08151 -40.59402,29.17434"
       id="path47"
       transform="scale(0.26458333)" /><path
       style="fill:none;stroke:#000000;stroke-width:1px;stroke-linecap:butt;stroke-linejoin:miter;stroke-opacity:1"
       d="m 275.89622,620.60291 c 3.11381,-9.12864 20.11694,-33.16668 29.75794,-19.73557"
       id="path48"
       transform="scale(0.26458333)" /><path
       style="fill:none;stroke:#000000;stroke-width:1px;stroke-linecap:butt;stroke-linejoin:miter;stroke-opacity:1"
       d="m 317.0953,606.04875 c -9.94129,9.65041 -26.64504,15.22198 -33.31497,28.03574"
       id="path49"
       transform="scale(0.26458333)" /><path
       style="fill:none;stroke:#000000;stroke-width:1px;stroke-linecap:butt;stroke-linejoin:miter;stroke-opacity:1"
       d="m 297.18333,662.86277 c 3.81306,-5.50306 4.94148,-12.76037 8.76419,-18.20093 9.77776,-13.9159 21.09152,-24.4736 28.76784,-40.31272 5.52862,-11.40759 7.803,-24.69796 12.28456,-36.58343 4.39692,-11.66102 11.42516,-25.4371 17.7851,-36.3194 7.74701,-13.25569 23.33549,-26.45709 27.19099,-41.13778"
       id="path50"
       transform="scale(0.26458333)" /><path
       style="fill:none;stroke:#000000;stroke-width:1px;stroke-linecap:butt;stroke-linejoin:miter;stroke-opacity:1"
       d="m 407.1508,531.60986 c -28.22543,11.93973 -49.48265,38.71458 -57.64571,68.10095"
       id="path51"
       transform="scale(0.26458333)" /><path
       style="fill:none;stroke:#000000;stroke-width:1px;stroke-linecap:butt;stroke-linejoin:miter;stroke-opacity:1"
       d="m 378.69465,572.45062 c -16.68528,17.06378 -15.92697,42.08218 -21.19544,63.13404"
       id="path52"
       transform="scale(0.26458333)" /><path
       style="fill:none;stroke:#000000;stroke-width:1px;stroke-linecap:butt;stroke-linejoin:miter;stroke-opacity:1"
       d="m 374.01919,670.68297 c -2.55089,-28.51901 5.58101,-56.04623 12.04619,-83.19964"
       id="path53"
       transform="scale(0.26458333)" /><path
       style="fill:none;stroke:#000000;stroke-width:1px;stroke-linecap:butt;stroke-linejoin:miter;stroke-opacity:1"
       d="m 396.66309,602.59853 c 3.59739,-3.72898 6.24703,-8.39181 8.69086,-12.95353 7.23521,-13.50545 14.73871,-26.39186 24.14739,-38.54708 8.96531,-11.5824 20.72975,-20.81941 28.65784,-33.66269"
       id="path54"
       transform="scale(0.26458333)" /><path
       style="fill:none;stroke:#000000;stroke-width:1px;stroke-linecap:butt;stroke-linejoin:miter;stroke-opacity:1"
       d="m 436.01032,526.01592 c -8.14486,3.07857 -15.19036,8.65189 -20.20533,15.72575"
       id="path55"
       transform="scale(0.26458333)" /><path
       style="fill:none;stroke:#000000;stroke-width:1px;stroke-linecap:butt;stroke-linejoin:miter;stroke-opacity:1"
       d="m 426.31102,567.33521 c 6.19682,-4.97246 15.31335,-8.77506 23.08395,-10.82486"
       id="path56"
       transform="scale(0.26458333)" /><path
       style="fill:none;stroke:#000000;stroke-width:1px;stroke-linecap:butt;stroke-linejoin:miter;stroke-opacity:1"
       d="m 468.46353,527.039 c -14.27057,18.06797 -30.77481,50.85772 -9.49761,69.25603"
       id="path57"
       transform="scale(0.26458333)" /><path
       style="fill:none;stroke:#000000;stroke-width:1px;stroke-linecap:butt;stroke-linejoin:miter;stroke-opacity:1"
       d="m 437.8255,579.21616 c -0.20057,8.86628 -1.16025,17.95402 1.00842,26.63313"
       id="path58"
       transform="scale(0.26458333)" /><path
       style="fill:none;stroke:#000000;stroke-width:1px;stroke-linecap:butt;stroke-linejoin:miter;stroke-opacity:1"
       d="m 415.1816,592.25221 c -12.95639,17.98527 -26.04165,37.30402 -35.29517,57.50709"
       id="path59"
       transform="scale(0.26458333)" /><path
       style="fill:none;stroke:#000000;stroke-width:1px;stroke-linecap:butt;stroke-linejoin:miter;stroke-opacity:1"
       d="m 416.28169,617.99426 c -2.14412,3.99979 -4.19616,8.04971 -6.47229,11.97995 -3.6673,6.33239 -8.5329,12.12454 -11.99119,18.564 -3.3369,6.21341 -2.79771,13.79532 -6.89402,19.45504"
       id="path60"
       transform="scale(0.26458333)" /><path
       style="fill:none;stroke:#000000;stroke-width:1px;stroke-linecap:butt;stroke-linejoin:miter;stroke-opacity:1"
       d="m 324.5693,665.05602 c 3.53272,7.43311 6.79858,20.66844 15.40152,22.67279"
       id="path61"
       transform="scale(0.26458333)" /><path
       style="fill:none;stroke:#000000;stroke-width:1px;stroke-linecap:butt;stroke-linejoin:miter;stroke-opacity:1"
       d="m 322.9558,646.77256 c 9.77589,4.51468 20.30495,3.23431 30.39968,0.52803"
       id="path62"
       transform="scale(0.26458333)" /><path
       style="fill:none;stroke:#000000;stroke-width:1px;stroke-linecap:butt;stroke-linejoin:miter;stroke-opacity:1"
       d="m 326.64117,643.04325 c 9.35073,-6.79587 18.55095,-1.36337 28.21778,-0.77557"
       id="path63"
       transform="scale(0.26458333)" /><path
       style="fill:none;stroke:#000000;stroke-width:1px;stroke-linecap:butt;stroke-linejoin:miter;stroke-opacity:1"
       d="m 478.05485,473.23316 c -2.10819,17.39895 2.12685,36.90381 -4.98715,53.39826"
       id="path64"
       transform="scale(0.26458333)" /><path
       style="fill:none;stroke:#000000;stroke-width:1px;stroke-linecap:butt;stroke-linejoin:miter;stroke-opacity:1"
       d="m 492.20959,461.3027 c 1.00531,15.60694 1.68776,32.49384 10.30435,46.12119"
       id="path65"
       transform="scale(0.26458333)" /><path
       style="fill:none;stroke:#000000;stroke-width:1px;stroke-linecap:butt;stroke-linejoin:miter;stroke-opacity:1"
       d="m 530.73172,469.71837 c -8.3239,14.04758 -14.8536,29.84053 -27.48438,40.60974"
       id="path66"
       transform="scale(0.26458333)" /><path
       style="fill:none;stroke:#000000;stroke-width:1px;stroke-linecap:butt;stroke-linejoin:miter;stroke-opacity:1"
       d="m 507.42777,552.14246 c 9.10511,-0.66147 21.32604,2.88203 27.88775,-4.73588"
       id="path67"
       transform="scale(0.26458333)" /><path
       style="fill:none;stroke:#000000;stroke-width:1px;stroke-linecap:butt;stroke-linejoin:miter;stroke-opacity:1"
       d="m 503.37569,561.66371 c 10.71258,-1.79753 20.65497,0.18232 30.74804,-3.87781"
       id="path68"
       transform="scale(0.26458333)" /><path
       style="fill:none;stroke:#000000;stroke-width:1px;stroke-linecap:butt;stroke-linejoin:miter;stroke-opacity:1"
       d="m 502.80729,568.09922 c 7.34351,5.07937 21.05334,7.6494 29.33625,3.77881"
       id="path69"
       transform="scale(0.26458333)" /><path
       style="fill:none;stroke:#000000;stroke-width:1px;stroke-linecap:butt;stroke-linejoin:miter;stroke-opacity:1"
       d="m 497.43509,577.42246 c 5.79102,2.62689 12.49524,0.0382 17.87679,0.61057"
       id="path70"
       transform="scale(0.26458333)" /><path
       style="fill:none;stroke:#000000;stroke-width:1px;stroke-linecap:butt;stroke-linejoin:miter;stroke-opacity:1"
       d="m 511.38815,588.03282 c 8.02277,0.31209 14.67776,10.261 22.31387,4.15833"
       id="path71"
       transform="scale(0.26458333)" /><path
       style="fill:none;stroke:#000000;stroke-width:1px;stroke-linecap:butt;stroke-linejoin:miter;stroke-opacity:1"
       d="m 494.90484,602.8345 c 3.89035,0.93977 7.56943,1.99388 11.55116,1.76565"
       id="path72"
       transform="scale(0.26458333)" /><path
       style="fill:none;stroke:#000000;stroke-width:1px;stroke-linecap:butt;stroke-linejoin:miter;stroke-opacity:1"
       d="m 484.78387,618.59325 c 6.23903,-3.95375 28.56049,3.46425 31.84813,2.06266"
       id="path73"
       transform="scale(0.26458333)" /><path
       style="fill:none;stroke:#000000;stroke-width:1px;stroke-linecap:butt;stroke-linejoin:miter;stroke-opacity:1"
       d="m 449.43855,646.16999 c 8.27692,1.66009 15.37968,10.56323 20.4987,17.07886"
       id="path74"
       transform="scale(0.26458333)" /><path
       style="fill:none;stroke:#000000;stroke-width:1px;stroke-linecap:butt;stroke-linejoin:miter;stroke-opacity:1"
       d="m 477.72968,648.82669 c 6.74222,-1.50893 13.85056,-3.80274 19.60028,-7.78862"
       id="path75"
       transform="scale(0.26458333)" /><path
       style="fill:none;stroke:#000000;stroke-width:1px;stroke-linecap:butt;stroke-linejoin:miter;stroke-opacity:1"
       d="m 459.00951,639.42094 c 7.68376,2.52594 10.72519,10.51087 16.73998,14.75219"
       id="path76"
       transform="scale(0.26458333)" /><path
       style="fill:none;stroke:#000000;stroke-width:1px;stroke-linecap:butt;stroke-linejoin:miter;stroke-opacity:1"
       d="m 499.47061,691.23082 c 15.33849,-9.3054 31.39844,-3.28066 47.46968,-2.4917 5.3421,0.26225 11.50205,-0.56114 16.59332,1.4026 6.28016,2.42231 12.28519,6.19219 18.11512,8.39917"
       id="path77"
       transform="scale(0.26458333)" /><path
       style="fill:none;stroke:#000000;stroke-width:1px;stroke-linecap:butt;stroke-linejoin:miter;stroke-opacity:1"
       d="m 471.93121,692.41891 c -13.37114,6.6303 -23.66017,13.69139 -32.17818,26.46811"
       id="path78"
       transform="scale(0.26458333)" /><path
       style="fill:none;stroke:#000000;stroke-width:1px;stroke-linecap:butt;stroke-linejoin:miter;stroke-opacity:1"
       d="m 452.73432,717.59992 c 20.42993,2.94399 39.61866,-5.12984 55.86718,-17.02937"
       id="path79"
       transform="scale(0.26458333)" /><path
       style="fill:none;stroke:#000000;stroke-width:1px;stroke-linecap:butt;stroke-linejoin:miter;stroke-opacity:1"
       d="m 543.84167,709.28325 c -6.97888,1.81351 -14.454,2.43708 -21.26877,4.9174 -6.90184,2.51202 -13.1455,6.88064 -20.15033,9.17474 -11.56028,3.786 -26.15657,5.05697 -38.4488,6.58402 -10.9722,1.36307 -28.09837,-1.5302 -36.982,4.52136"
       id="path80"
       transform="scale(0.26458333)" /><path
       style="fill:none;stroke:#000000;stroke-width:1px;stroke-linecap:butt;stroke-linejoin:miter;stroke-opacity:1"
       d="m 480.69541,743.98553 c 27.10196,-5.70033 59.02891,-2.61383 80.748,-22.4418"
       id="path81"
       transform="scale(0.26458333)" /><path
       style="fill:none;stroke:#000000;stroke-width:1px;stroke-linecap:butt;stroke-linejoin:miter;stroke-opacity:1"
       d="m 562.21346,713.85412 c -10.10519,11.09863 -31.18173,11.93125 -39.95228,23.28335"
       id="path82"
       transform="scale(0.26458333)" /><path
       style="fill:none;stroke:#000000;stroke-width:1px;stroke-linecap:butt;stroke-linejoin:miter;stroke-opacity:1"
       d="m 449.89237,759.29874 c 40.47584,-9.25301 82.99606,-7.13866 122.38711,-21.3527"
       id="path83"
       transform="scale(0.26458333)" /><path
       style="fill:none;stroke:#000000;stroke-width:1px;stroke-linecap:butt;stroke-linejoin:miter;stroke-opacity:1"
       d="m 559.07816,753.7048 c -13.25807,6.23877 -28.10515,6.66091 -42.26251,9.35625"
       id="path84"
       transform="scale(0.26458333)" /><path
       style="fill:none;stroke:#000000;stroke-width:1px;stroke-linecap:butt;stroke-linejoin:miter;stroke-opacity:1"
       d="m 476.62502,765.35472 c 14.15366,3.80297 28.52401,3.36855 43.01423,2.3927"
       id="path85"
       transform="scale(0.26458333)" /><path
       style="fill:none;stroke:#000000;stroke-width:1px;stroke-linecap:butt;stroke-linejoin:miter;stroke-opacity:1"
       d="m 386.87376,751.07174 c -3.38047,10.09545 -8.68552,25.23137 -4.65713,34.93328"
       id="path86"
       transform="scale(0.26458333)" /><path
       style="fill:none;stroke:#000000;stroke-width:1px;stroke-linecap:butt;stroke-linejoin:miter;stroke-opacity:1"
       d="m 371.87561,749.09159 c -5.2779,6.38482 -4.04538,16.38983 -10.011,22.32627 -3.12495,3.10968 -7.06643,4.90801 -9.88263,8.34967"
       id="path87"
       transform="scale(0.26458333)" /><path
       style="fill:none;stroke:#000000;stroke-width:1px;stroke-linecap:butt;stroke-linejoin:miter;stroke-opacity:1"
       d="m 408.61923,779.32199 c 4.90856,-14.56524 20.21756,-13.83816 31.71981,-18.53097"
       id="path88"
       transform="scale(0.26458333)" /><path
       style="fill:none;stroke:#000000;stroke-width:1px;stroke-linecap:butt;stroke-linejoin:miter;stroke-opacity:1"
       d="m 179.3199,701.00675 c 16.26409,51.84169 78.25799,69.35468 127.79598,68.51347"
       id="path89"
       transform="scale(0.26458333)" /><path
       style="fill:none;stroke:#000000;stroke-width:1px;stroke-linecap:butt;stroke-linejoin:miter;stroke-opacity:1"
       d="m 320.64721,733.54735 c -11.63799,-0.5344 -22.85046,19.43994 -31.02306,21.96324 -5.45064,1.6829 -11.18853,-0.17211 -16.96001,1.76565"
       id="path90"
       transform="scale(0.26458333)" /><path
       style="fill:none;stroke:#000000;stroke-width:1px;stroke-linecap:butt;stroke-linejoin:miter;stroke-opacity:1"
       d="m 165.51354,681.88172 c 25.13459,10.03374 52.84279,12.79603 74.55071,30.1314"
       id="path91"
       transform="scale(0.26458333)" /><path
       style="fill:none;stroke:#000000;stroke-width:1px;stroke-linecap:butt;stroke-linejoin:miter;stroke-opacity:1"
       d="m 184.78378,665.28139 c 14.14025,3.72418 39.04878,0.99546 50.47666,11.89745"
       id="path92"
       transform="scale(0.26458333)" /><path
       style="fill:none;stroke:#000000;stroke-width:1px;stroke-linecap:butt;stroke-linejoin:miter;stroke-opacity:1"
       d="m 131.83188,710.18148 c 20.32183,3.65934 49.35835,19.93527 60.17595,36.94644"
       id="path93"
       transform="scale(0.26458333)" /><path
       style="fill:none;stroke:#000000;stroke-width:1px;stroke-linecap:butt;stroke-linejoin:miter;stroke-opacity:1"
       d="m 130.36507,720.03277 c 12.64771,4.45983 24.35454,8.08033 31.82981,19.48806"
       id="path94"
       transform="scale(0.26458333)" /><path
       style="fill:none;stroke:#000000;stroke-width:1px;stroke-linecap:butt;stroke-linejoin:miter;stroke-opacity:1"
       d="m 167.64042,743.20061 c -28.56701,12.14941 -7.99423,20.07664 -12.33955,27.17767 -1.05197,1.71911 -3.99399,3.02789 -5.48222,4.32335"
       id="path95"
       transform="scale(0.26458333)" /><path
       style="fill:none;stroke:#000000;stroke-width:1px;stroke-linecap:butt;stroke-linejoin:miter;stroke-opacity:1"
       d="m 174.91947,769.66872 c 20.67711,-10.61193 30.41088,23.82199 49.65158,20.19762"
       id="path96"
       transform="scale(0.26458333)" /><path
       style="fill:none;stroke:#000000;stroke-width:1px;stroke-linecap:butt;stroke-linejoin:miter;stroke-opacity:1"
       d="m 235.42546,784.2724 c 21.00911,3.60028 39.05412,4.73227 57.48067,-6.45203"
       id="path97"
       transform="scale(0.26458333)" /><path
       style="fill:none;stroke:#000000;stroke-width:1px;stroke-linecap:butt;stroke-linejoin:miter;stroke-opacity:1"
       d="m 318.77702,778.23291 c 10.68169,-3.44028 23.57148,-22.12443 29.46457,-36.36891"
       id="path98"
       transform="scale(0.26458333)" /><path
       style="fill:none;stroke:#000000;stroke-width:1px;stroke-linecap:butt;stroke-linejoin:miter;stroke-opacity:1"
       d="m 352.71538,733.23382 c 15.10069,0.1572 39.73728,6.00124 52.05348,1.81514"
       id="path99"
       transform="scale(0.26458333)" /><path
       style="fill:none;stroke:#000000;stroke-width:1px;stroke-linecap:butt;stroke-linejoin:miter;stroke-opacity:1"
       d="m 454.39286,394.73316 c -16.26338,4.58029 -11.29982,24.67835 -17.18004,35.59334 -3.79287,7.04042 -11.36574,11.98123 -15.73155,18.8445 -7.61843,11.97657 -11.61179,25.90032 -17.34505,38.8276"
       id="path100"
       transform="scale(0.26458333)" /><path
       style="fill:none;stroke:#000000;stroke-width:1px;stroke-linecap:butt;stroke-linejoin:miter;stroke-opacity:1"
       d="m 372.83813,431.5971 c 16.67459,-11.64637 60.47169,-67.51969 81.81142,-66.4673 4.37738,0.21587 12.07302,5.46196 16.15327,7.26058"
       id="path101"
       transform="scale(0.26458333)" /><path
       style="fill:none;stroke:#000000;stroke-width:1px;stroke-linecap:butt;stroke-linejoin:miter;stroke-opacity:1"
       d="m 407.69324,362.6711 c 13.03514,-5.98723 32.84685,-9.25019 44.88444,0.72606"
       id="path102"
       transform="scale(0.26458333)" /><path
       style="fill:none;stroke:#000000;stroke-width:1px;stroke-linecap:butt;stroke-linejoin:miter;stroke-opacity:1"
       d="m 427.51354,351.63172 c 12.37147,1.61888 30.36384,3.97802 38.02709,14.86769"
       id="path103"
       transform="scale(0.26458333)" /><path
       style="fill:none;stroke:#000000;stroke-width:1px;stroke-linecap:butt;stroke-linejoin:miter;stroke-opacity:1"
       d="m 499.05727,394.48564 c -15.81276,-14.12619 -24.67385,-5.11234 -29.50125,12.44199"
       id="path104"
       transform="scale(0.26458333)" /><path
       style="fill:none;stroke:#000000;stroke-width:1px;stroke-linecap:butt;stroke-linejoin:miter;stroke-opacity:1"
       d="m 495.59193,413.87468 c -14.82671,16.14618 -25.669,59.15209 -47.10299,64.42115"
       id="path105"
       transform="scale(0.26458333)" /><path
       style="fill:none;stroke:#000000;stroke-width:1px;stroke-linecap:butt;stroke-linejoin:miter;stroke-opacity:1"
       d="m 474.02979,463.52715 c -5.53116,10.71972 -13.74628,19.45559 -23.04727,26.99616"
       id="path106"
       transform="scale(0.26458333)" /><path
       style="fill:none;stroke:#000000;stroke-width:1px;stroke-linecap:butt;stroke-linejoin:miter;stroke-opacity:1"
       d="m 362.86381,487.48707 c 13.79158,-15.62665 23.11236,-38.90398 33.64499,-57.5566"
       id="path107"
       transform="scale(0.26458333)" /><path
       style="fill:none;stroke:#000000;stroke-width:1px;stroke-linecap:butt;stroke-linejoin:miter;stroke-opacity:1"
       d="m 351.53269,463.85717 c 4.40247,-9.31833 12.87979,-17.59374 11.77116,-28.49777"
       id="path108"
       transform="scale(0.26458333)" /><path
       style="fill:none;stroke:#000000;stroke-width:1px;stroke-linecap:butt;stroke-linejoin:miter;stroke-opacity:1"
       d="m 280.14066,450.11618 c 13.48848,-7.89546 28.06075,-21.39313 43.56431,-24.57045"
       id="path109"
       transform="scale(0.26458333)" /><path
       style="fill:none;stroke:#000000;stroke-width:1px;stroke-linecap:butt;stroke-linejoin:miter;stroke-opacity:1"
       d="m 397.55273,447.54432 c 21.85494,-0.0203 37.97815,-37.033 35.09347,-53.33225"
       id="path113"
       transform="matrix(0.26458333,0,0,0.26458333,30.618427,52.691093)" /><path
       style="fill:none;stroke:#000000;stroke-width:1px;stroke-linecap:butt;stroke-linejoin:miter;stroke-opacity:1"
       d="m 435.56148,429.70639 c -0.70562,8.55176 -0.0413,22.14214 5.9406,28.21726"
       id="path114"
       transform="matrix(0.26458333,0,0,0.26458333,30.618427,52.691093)" /><path
       style="fill:#e3bb96;fill-opacity:1;stroke:none;stroke-width:1px;stroke-linecap:butt;stroke-linejoin:miter;stroke-opacity:1"
       d="m 184.0185,75.829189 c -3.27287,-1.61772 -2.95026,2.047171 -3.66703,4.224341 -5.81304,17.65714 13.91524,34.70595 4.56545,5.577441 -0.97946,-3.051432 0.0745,-6.549621 -0.89842,-9.801782 z"
       id="path123"
       transform="matrix(0.26458333,0,0,0.26458333,30.618427,52.691093)" /><path
       style="fill:none;stroke:#000000;stroke-width:1px;stroke-linecap:butt;stroke-linejoin:miter;stroke-opacity:1"
       d="m 225.50128,526.55847 c -1.64753,-2.30442 -11.09506,-3.35198 -13.57717,-1.08909"
       id="path127"
       transform="matrix(0.26458333,0,0,0.26458333,30.618427,52.691093)" /><path
       style="fill:none;stroke:#000000;stroke-width:1px;stroke-linecap:butt;stroke-linejoin:miter;stroke-opacity:1"
       d="m 235.7873,516.66593 c 5.9018,-1.89024 13.05711,-0.85548 17.38172,3.25901"
       id="path128"
       transform="matrix(0.26458333,0,0,0.26458333,30.618427,52.691093)" /><path
       style="fill:none;stroke:#000000;stroke-width:1px;stroke-linecap:butt;stroke-linejoin:miter;stroke-opacity:1"
       d="m 214.53686,508.71229 c 5.78665,-6.53477 9.99681,-4.86301 16.18994,-1.08083"
       id="path131"
       transform="matrix(0.26458333,0,0,0.26458333,30.618427,52.691093)" /><path
       style="fill:none;stroke:#000000;stroke-width:1px;stroke-linecap:butt;stroke-linejoin:miter;stroke-opacity:1"
       d="m 231.58855,507.39219 c 5.65797,-5.45282 11.58037,-6.51608 16.40995,-1.69963"
       id="path132"
       transform="matrix(0.26458333,0,0,0.26458333,30.618427,52.691093)" /><path
       style="fill:none;stroke:#000000;stroke-width:1px;stroke-linecap:butt;stroke-linejoin:miter;stroke-opacity:1"
       d="m 247.81164,495.00571 c 2.58465,0.75956 3.60482,4.31372 4.93216,6.49327"
       id="path137"
       transform="matrix(0.26458333,0,0,0.26458333,30.618427,52.691093)" /><path
       style="fill:none;stroke:#000000;stroke-width:1px;stroke-linecap:butt;stroke-linejoin:miter;stroke-opacity:1"
       d="m 251.66202,492.74503 c 2.05099,2.25192 2.89751,4.80319 2.69526,7.82163"
       id="path138"
       transform="matrix(0.26458333,0,0,0.26458333,30.618427,52.691093)" /><path
       style="fill:none;stroke:#000000;stroke-width:1px;stroke-linecap:butt;stroke-linejoin:miter;stroke-opacity:1"
       d="m 212.82818,496.37532 c -2.59983,1.21167 -3.79592,3.08761 -4.30876,5.75896"
       id="path139"
       transform="matrix(0.26458333,0,0,0.26458333,30.618427,52.691093)" /><path
       style="fill:none;stroke:#000000;stroke-width:1px;stroke-linecap:butt;stroke-linejoin:miter;stroke-opacity:1"
       d="m 213.83662,498.22347 c -1.6548,1.30632 -2.9937,3.06582 -3.58453,5.09891"
       id="path140"
       transform="matrix(0.26458333,0,0,0.26458333,30.618427,52.691093)" /><path
       style="fill:none;stroke:#000000;stroke-width:1px;stroke-linecap:butt;stroke-linejoin:miter;stroke-opacity:1"
       d="m 192.90704,486.30127 c -4.39904,0.7704 -1.8943,8.6094 1.73268,8.96847"
       id="path141"
       transform="matrix(0.26458333,0,0,0.26458333,30.618427,52.691093)" /><path
       style="fill:none;stroke:#000000;stroke-width:1px;stroke-linecap:butt;stroke-linejoin:miter;stroke-opacity:1"
       d="m 198.86597,495.5255 c 1.5368,-1.49114 2.00039,-3.78666 2.3744,-5.83321"
       id="path142"
       transform="matrix(0.26458333,0,0,0.26458333,30.618427,52.691093)" /><path
       style="fill:none;stroke:#000000;stroke-width:1px;stroke-linecap:butt;stroke-linejoin:miter;stroke-opacity:1"
       d="m 265.98177,484.38712 c -0.88331,3.95979 1.00786,6.29675 4.4646,7.80512"
       id="path143"
       transform="matrix(0.26458333,0,0,0.26458333,30.618427,52.691093)" /><path
       style="fill:none;stroke:#000000;stroke-width:1px;stroke-linecap:butt;stroke-linejoin:miter;stroke-opacity:1"
       d="m 276.95535,481.24362 c 1.48007,3.50478 1.73768,7.09758 0.99927,10.80011"
       id="path144"
       transform="matrix(0.26458333,0,0,0.26458333,30.618427,52.691093)" /><path
       style="fill:none;stroke:#000000;stroke-width:1px;stroke-linecap:butt;stroke-linejoin:miter;stroke-opacity:1"
       d="m 253.66055,509.95591 c -0.43595,0.99559 0.0142,1.92792 0.33003,2.86298"
       id="path145"
       transform="matrix(0.26458333,0,0,0.26458333,30.618427,52.691093)" /><path
       style="fill:none;stroke:#000000;stroke-width:1px;stroke-linecap:butt;stroke-linejoin:miter;stroke-opacity:1"
       d="m 264.42328,505.50055 c 0.80599,1.60181 2.01422,3.01844 3.60286,3.84481"
       id="path146"
       transform="matrix(0.26458333,0,0,0.26458333,30.618427,52.691093)" /><path
       style="fill:none;stroke:#000000;stroke-width:1px;stroke-linecap:butt;stroke-linejoin:miter;stroke-opacity:1"
       d="m 208.34471,511.53543 c -0.626,1.12191 -1.32714,2.17671 -2.19105,3.127"
       id="path147"
       transform="matrix(0.26458333,0,0,0.26458333,30.618427,52.691093)" /><path
       style="fill:none;stroke:#000000;stroke-width:1px;stroke-linecap:butt;stroke-linejoin:miter;stroke-opacity:1"
       d="m 199.65385,505.59496 c -1.38291,1.23629 -2.51953,2.78073 -4.11624,3.87781"
       id="path148"
       transform="matrix(0.26458333,0,0,0.26458333,30.618427,52.691093)" /><path
       style="fill:none;stroke:#000000;stroke-width:1px;stroke-linecap:butt;stroke-linejoin:miter;stroke-opacity:1"
       d="m 312.2344,490.30898 c 7.43611,-8.31596 14.82145,1.48397 20.75539,-8.05264"
       id="path150"
       transform="matrix(0.26458333,0,0,0.26458333,30.618427,52.691093)" /><path
       style="fill:none;stroke:#000000;stroke-width:1px;stroke-linecap:butt;stroke-linejoin:miter;stroke-opacity:1"
       d="m 270.0269,497.83359 c 6.92517,-0.39979 13.16407,-2.33026 19.61859,1.15508"
       id="path151"
       transform="matrix(0.26458333,0,0,0.26458333,30.618427,52.691093)" /><path
       style="fill:none;stroke:#000000;stroke-width:1px;stroke-linecap:butt;stroke-linejoin:miter;stroke-opacity:1"
       d="m 162.7663,487.23974 c 2.69061,7.01702 9.85046,12.46611 16.31827,13.33308"
       id="path152"
       transform="matrix(0.26458333,0,0,0.26458333,30.618427,52.691093)" /><path
       style="fill:none;stroke:#000000;stroke-width:1px;stroke-linecap:butt;stroke-linejoin:miter;stroke-opacity:1"
       d="m 194.4861,499.21971 c -4.11486,-2.47469 -6.18798,-3.87207 -10.81775,-3.33327"
       id="path153"
       transform="matrix(0.26458333,0,0,0.26458333,30.618427,52.691093)" /><path
       style="fill:none;stroke:#000000;stroke-width:1px;stroke-linecap:butt;stroke-linejoin:miter;stroke-opacity:1"
       d="m 142.31024,261.10323 c 0.77109,-7.56515 -1.62031,-15.10556 -2.01687,-22.5408"
       id="path154"
       transform="matrix(0.26458333,0,0,0.26458333,30.618427,52.691093)" /><path
       style="fill:none;stroke:#000000;stroke-width:1px;stroke-linecap:butt;stroke-linejoin:miter;stroke-opacity:1"
       d="m 146.0506,238.99146 c 0.83942,6.55224 3.56155,9.48042 9.46096,11.94695"
       id="path155"
       transform="matrix(0.26458333,0,0,0.26458333,30.618427,52.691093)" /><path
       style="fill:none;stroke:#000000;stroke-width:1px;stroke-linecap:butt;stroke-linejoin:miter;stroke-opacity:1"
       d="m 113.89077,347.30612 c 12.52854,-10.26112 14.53917,-24.72387 16.39161,-39.8672"
       id="path156"
       transform="matrix(0.26458333,0,0,0.26458333,30.618427,52.691093)" /><path
       style="fill:none;stroke:#000000;stroke-width:1px;stroke-linecap:butt;stroke-linejoin:miter;stroke-opacity:1"
       d="m 125.99196,366.81067 c -5.64129,4.28264 -12.49532,5.83312 -17.78508,10.59385"
       id="path157"
       transform="matrix(0.26458333,0,0,0.26458333,30.618427,52.691093)" /></g></svg>
